<svg>
<style type="text/css">
	.st0{fill:#303F4D;}
	.st1{fill:#2266DE;}
	.st2{fill:#FC1952;}
	.st3{fill:#F3DB86;}
</style>
<g>
	<path class="st0" d="M71.01,22.29c0-1.16-0.7-1.94-2.18-2.36c-1.41-0.42-3.03-0.84-4.75-1.3c-4.68-1.2-7.01-3.38-7.01-6.55
		c0.11-5.03,3.1-7.5,9.01-7.46c5.63,0,8.55,2.46,8.84,7.43h-2.75c-1.02,0-1.72-0.49-2.18-1.41c-0.81-1.37-2.25-2.04-4.33-2.04
		c-2.53,0.04-3.8,0.99-3.91,2.82c0,1.51,1.51,2.6,4.65,3.31c1.8,0.42,3.7,0.95,5.7,1.65c2.68,0.92,3.94,2.89,3.8,5.91
		c-0.28,4.68-3.45,7-9.5,7c-6.34,0-9.54-2.64-9.68-7.85h4.75c0.18,2.53,1.8,3.8,4.93,3.8C69.54,25.25,71.05,24.26,71.01,22.29z"/>
	<path class="st0" d="M87.18,29.37c-5.63,0-8.52-3.24-8.66-9.65c0-6.37,2.85-9.58,8.59-9.68c4.51,0,7.18,2.01,7.99,6.05h-5.1
		c-0.56-1.27-1.55-1.94-3.03-1.94c-2.46,0-3.7,1.87-3.7,5.56s1.3,5.56,3.91,5.53c1.09,0,2.04-0.46,2.82-1.34
		c0.46-0.46,0.99-0.67,1.58-0.67h3.52C94.25,27.04,91.51,29.47,87.18,29.37z"/>
	<path class="st0" d="M97.92,19.33c0.14-6.02,3.34-9.01,9.58-9.01h0.67v4.86h-1.58c-2.6,0-3.91,1.37-3.91,4.08v9.68h-4.75V19.33z"/>
	<path class="st0" d="M113.83,5.01c1.55,0,2.29,0.77,2.25,2.29v1.37h-4.68V5.01H113.83z M113.83,10.32c1.51,0,2.25,0.74,2.25,2.25
		v16.37h-4.68V10.32H113.83z"/>
	<path class="st0" d="M123.76,12.93c1.2-1.94,2.96-2.89,5.28-2.89c4.96,0.18,7.43,3.41,7.43,9.75c0,6.2-2.89,9.33-8.66,9.43
		c-5.81,0.04-8.73-2.75-8.73-8.34V5.01h2.36c1.55,0,2.32,0.81,2.32,2.36V12.93z M123.76,19.58c-0.04,3.77,1.23,5.67,3.91,5.67
		c2.68,0,4.01-1.9,4.01-5.67c-0.11-3.59-1.41-5.35-3.94-5.35C125.2,14.23,123.9,15.99,123.76,19.58z"/>
	<path class="st0" d="M143.61,12.93c1.2-1.94,2.96-2.89,5.28-2.89c4.96,0.18,7.43,3.41,7.43,9.75c0,6.2-2.89,9.33-8.66,9.43
		c-5.81,0.04-8.73-2.75-8.73-8.34V5.01h2.36c1.55,0,2.32,0.81,2.32,2.36V12.93z M143.61,19.58c-0.04,3.77,1.23,5.67,3.91,5.67
		c2.68,0,4.01-1.9,4.01-5.67c-0.11-3.59-1.41-5.35-3.94-5.35C145.06,14.23,143.76,15.99,143.61,19.58z"/>
	<path class="st0" d="M161.25,5.01h2.43v19.54h11.69v4.4h-16.58V7.58C158.79,6.2,159.88,5.01,161.25,5.01z"/>
	<path class="st0" d="M182.59,15.18h-4.68c0.56-3.45,2.99-5.14,7.29-5.14c5.14,0,7.74,1.69,7.85,5.14v6.34
		c0,5.14-3.1,7.43-8.13,7.78c-4.47,0.35-7.57-1.72-7.57-5.84c0.11-4.47,3.34-5.67,8.06-6.13c2.01-0.25,3.03-0.85,3.03-1.87
		c-0.11-1.06-1.09-1.58-3.03-1.58C183.75,13.88,182.84,14.3,182.59,15.18z M188.5,21.3v-1.72c-1.09,0.46-2.36,0.84-3.73,1.13
		c-1.87,0.35-2.82,1.23-2.82,2.6c0.11,1.48,0.88,2.18,2.36,2.18C186.92,25.49,188.5,23.94,188.5,21.3z"/>
	<path class="st0" d="M209.13,28.94c-1.55-0.11-2.32-0.84-2.32-2.32v-9.58c-0.11-1.94-1.16-2.89-3.24-2.89s-3.13,0.95-3.17,2.89
		v11.9h-4.75V17.99c0-5.31,2.67-7.96,7.99-7.96s7.92,2.64,7.89,7.96v10.95H209.13z"/>
	<path class="st0" d="M213.71,19.65c0-6.2,2.89-9.29,8.66-9.4c5.81-0.04,8.73,2.71,8.73,8.31v11.02c0,4.68-2.96,7.04-8.91,7.15
		c-4.22,0-6.9-1.97-7.99-5.91h5.17c0.32,1.34,1.41,1.97,3.34,1.97c2.46,0,3.73-1.44,3.73-4.33c0,0,0,0.04,0-1.9
		c-1.2,1.83-2.99,2.75-5.32,2.75C216.18,29.29,213.71,26.06,213.71,19.65z M226.46,19.79c0.04-3.77-1.27-5.63-3.94-5.63
		s-3.98,1.87-3.98,5.63c0.11,3.59,1.37,5.39,3.91,5.39S226.32,23.38,226.46,19.79z"/>
</g>
<g>
	<g>
		<path class="st1" d="M16.07,16.47c0,0-0.01-11.6,0.01-16.47h-13C0.41,0.09-0.54,1.62,0.4,4.16c0.48,1.31,1.29,2.51,2.09,3.67
			c0.8,1.16,1.79,2.2,2.67,3.31c3.14,3.97,3.08,5.8,0.11,9.92c-1.73,2.4-3.47,4.85-4.74,7.49c-1.3,2.72-0.09,4.29,2.93,4.34
			l12.65-0.01L16.07,16.47z M16.1,32.97L16.07,0"/>
	</g>
</g>
<path class="st2" d="M37.49,32.9h-9.3V0h9.3c1.9,0,3.45,1.55,3.45,3.45v25.99C40.95,31.35,39.39,32.9,37.49,32.9z"/>
<rect x="15.97" class="st3" width="12.33" height="32.9"/>
</svg>
