<?xml version="1.0" encoding="utf-8"?>
<!-- Generator: Adobe Illustrator 24.0.0, SVG Export Plug-In . SVG Version: 6.00 Build 0)  -->
<svg version="1.1" id="Layer_1" xmlns="http://www.w3.org/2000/svg" xmlns:xlink="http://www.w3.org/1999/xlink" x="0px" y="0px"
	 viewBox="0 0 206.2 39.4" style="enable-background:new 0 0 206.2 39.4;" xml:space="preserve">
<style type="text/css">
	.st0{fill:#DBD8E4;}
	.st1{fill:#303F4D;}
	.st2{fill:#FFDE6A;stroke:#303F4D;stroke-width:5;stroke-miterlimit:10;}
	.st3{fill:#FF3390;}
	.st4{fill:#7533F2;}
	.st5{fill:#FFD939;}
	.st6{fill:#F3F5F9;}
</style>
<g>
	<path class="st0" d="M17.3,37.3c-2.1,0-3.9-1.7-3.9-3.9V5.5c0-2.1,1.7-3.9,3.9-3.9h22.6c2.1,0,3.9,1.7,3.9,3.9v27.9
		c0,2.1-1.7,3.9-3.9,3.9C39.9,37.3,17.3,37.3,17.3,37.3z"/>
	<path class="st1" d="M39.9,3.1c1.3,0,2.4,1.1,2.4,2.4v27.9c0,1.3-1.1,2.4-2.4,2.4H17.3c-1.3,0-2.4-1.1-2.4-2.4V5.5
		c0-1.3,1.1-2.4,2.4-2.4H39.9 M39.9,0.1H17.3c-3,0-5.4,2.4-5.4,5.4v27.9c0,3,2.4,5.4,5.4,5.4h22.6c3,0,5.4-2.4,5.4-5.4V5.5
		C45.3,2.5,42.9,0.1,39.9,0.1L39.9,0.1z"/>
</g>
<g>
	<path class="st1" d="M74.4,23.8c0-1-0.6-1.6-1.8-2c-1.2-0.3-2.5-0.7-4-1.1c-3.9-1-5.8-2.8-5.8-5.4c0.1-4.1,2.6-6.2,7.4-6.2
		c4.6,0,7.1,2.1,7.2,6.1h-2.3c-0.8,0-1.4-0.4-1.8-1.2c-0.7-1.2-1.9-1.6-3.5-1.6c-2.1,0-3.1,0.8-3.2,2.3c0,1.2,1.2,2.1,3.8,2.7
		c1.5,0.3,3,0.7,4.7,1.3c2.2,0.7,3.2,2.4,3.1,4.9c-0.2,3.9-2.8,5.8-7.8,5.8c-5.2,0-7.8-2.1-8-6.5h4c0.2,2.1,1.5,3.1,4,3.1
		C73.2,26.3,74.5,25.5,74.4,23.8z"/>
	<path class="st1" d="M87.8,29.7c-4.6,0-7-2.6-7.2-7.9c0-5.3,2.3-7.9,7.1-8c3.7,0,5.9,1.6,6.6,4.9h-4.2c-0.5-1.1-1.3-1.6-2.5-1.6
		c-2.1,0-3,1.6-3,4.6s1.1,4.6,3.2,4.5c0.9,0,1.6-0.4,2.3-1.1c0.4-0.4,0.8-0.6,1.3-0.6h2.9C93.6,27.7,91.3,29.8,87.8,29.7z"/>
	<path class="st1" d="M96.6,21.4c0.1-4.9,2.7-7.4,7.9-7.4h0.6v4h-1.3c-2.1,0-3.2,1.2-3.2,3.4v8h-4V21.4L96.6,21.4z"/>
	<path class="st1" d="M109.7,9.6c1.3,0,1.9,0.7,1.9,1.9v1.2h-3.9v-3L109.7,9.6L109.7,9.6z M109.7,14c1.2,0,1.9,0.6,1.9,1.9v13.5
		h-3.9V14H109.7z"/>
	<path class="st1" d="M117.9,16.1c1-1.6,2.5-2.4,4.4-2.4c4.1,0.2,6.1,2.8,6.1,8.1c0,5.1-2.4,7.7-7.2,7.7c-4.8,0-7.2-2.3-7.2-6.8V9.6
		h2c1.3,0,1.9,0.7,1.9,2C117.9,11.6,117.9,16.1,117.9,16.1z M117.9,21.6c0,3.1,1,4.7,3.2,4.7s3.3-1.6,3.3-4.7
		c-0.1-3-1.2-4.4-3.2-4.4C119,17.2,118,18.7,117.9,21.6z"/>
	<path class="st1" d="M134.2,16.1c1-1.6,2.5-2.4,4.4-2.4c4.1,0.2,6.1,2.8,6.1,8.1c0,5.1-2.4,7.7-7.2,7.7s-7.2-2.3-7.2-6.8V9.6h2
		c1.3,0,1.9,0.7,1.9,2V16.1z M134.2,21.6c0,3.1,1,4.7,3.2,4.7s3.3-1.6,3.3-4.7c-0.1-3-1.2-4.4-3.2-4.4S134.3,18.7,134.2,21.6z"/>
	<path class="st1" d="M148.7,9.6h2v16h9.6v3.7h-13.7V11.8C146.7,10.6,147.6,9.6,148.7,9.6z"/>
	<path class="st1" d="M166.3,18h-3.9c0.5-2.8,2.5-4.2,6-4.2c4.2,0,6.3,1.4,6.5,4.2v5.2c0,4.2-2.6,6.1-6.7,6.4
		c-3.7,0.3-6.3-1.4-6.3-4.8c0.1-3.7,2.7-4.7,6.7-5c1.6-0.2,2.5-0.7,2.5-1.6c-0.1-0.9-0.9-1.3-2.5-1.3
		C167.3,16.9,166.4,17.3,166.3,18z M171.1,23v-1.4c-0.9,0.4-2,0.7-3,0.9c-1.6,0.3-2.3,1-2.3,2.1c0.1,1.2,0.7,1.8,2,1.8
		C169.8,26.5,171.1,25.2,171.1,23z"/>
	<path class="st1" d="M188.1,29.3c-1.3-0.1-1.9-0.7-1.9-1.9v-7.9c-0.1-1.6-1-2.4-2.6-2.4s-2.6,0.7-2.6,2.4v9.8h-4v-9
		c0-4.4,2.2-6.6,6.6-6.6s6.5,2.1,6.5,6.6v9H188.1z"/>
	<path class="st1" d="M191.9,21.6c0-5.1,2.4-7.7,7.2-7.7s7.2,2.2,7.2,6.8v9.1c0,3.9-2.5,5.8-7.3,5.9c-3.5,0-5.7-1.6-6.6-4.9h4.3
		c0.2,1.1,1.2,1.6,2.7,1.6c2.1,0,3-1.2,3-3.5c0,0,0,0,0-1.6c-1,1.5-2.5,2.3-4.4,2.3C193.9,29.6,191.9,27,191.9,21.6z M202.4,21.8
		c0-3.1-1.1-4.6-3.2-4.6s-3.3,1.6-3.3,4.6c0.1,3,1.2,4.4,3.2,4.4C201.2,26.2,202.2,24.8,202.4,21.8z"/>
	<path class="st1" d="M174.9,20.3v9h-2c-1.3-0.1-1.9-0.7-1.9-1.9l0.6-4"/>
	<path class="st1" d="M96.6,27.1v-13h2c1.3,0,1.9,0.7,1.9,2"/>
</g>
<g>
	<path class="st2" d="M40.1,2.1H15.9c-1.9,0-3.7,1.1-4.2,2.5l-2.3,6.5l0,0l-3.1,8.7l0,0L3,29.1C2.4,31,3.6,31.6,6.2,31
		c1.3-0.4,2.7-0.9,4-1.5s2.5-1.3,3.8-1.9c4.5-2.2,6.2-2.2,9.2-0.1c1.8,1.2,3.7,2.5,5.8,3.3c2.2,0.9,4,0.1,4.7-2.1l3.2-8.9l0,0L40,11
		l0,0l2.3-6.5C42.9,3.2,41.9,2.1,40.1,2.1z"/>
	<g>
		<g>
			<g>
				<g>
					<path class="st3" d="M21.7,19.8c0,0-10.8,0-15.4,0L3,29.1C2.4,31,3.6,31.6,6.2,31c1.3-0.4,2.7-0.9,4-1.5s2.5-1.3,3.8-1.9
						c4.5-2.2,6.2-2.2,9.2-0.1c1.8,1.2,3.7,2.5,5.8,3.3c2.2,0.9,4,0.1,4.7-2.1l3.2-9L21.7,19.8z M37.1,19.8H6.3"/>
				</g>
			</g>
		</g>
	</g>
	<path class="st4" d="M42.4,4.6L40,11.2H9.4l2.4-6.6c0.5-1.4,2.3-2.5,4.2-2.5h24.2C41.9,2.1,42.9,3.2,42.4,4.6z"/>
	<polygon class="st5" points="6.3,19.9 9.4,11.1 40.1,11.1 37,19.9 	"/>
</g>
<g>
	<g>
		<g>
			<g>
				<path class="st1" d="M21.2,22.2c-0.3,0-0.6-0.1-0.8-0.2c-0.2-0.1-0.4-0.4-0.5-0.6c-0.1-0.3-0.2-0.6-0.4-0.9L19.3,20h-4
					c-0.1,0.2-0.4,1.1-0.5,1.4c-0.2,0.5-0.6,0.8-1.2,0.8h-2.8c-0.3,0-0.6-0.1-0.8-0.3c-0.3-0.3-0.4-0.7-0.3-1.1L15,7.5
					c0-0.1,0.1-0.2,0.2-0.4c0-0.1,0.1-0.1,0.2-0.2c0.1-0.1,0.2-0.1,0.3-0.2s0.3-0.1,0.4-0.1h2.4c0.3,0,0.6,0.1,0.8,0.3
					c0.1,0.1,0.2,0.2,0.3,0.3l0.1,0.1L20,7.9l5,12.9c0.2,0.4,0.1,0.8-0.2,1.1c-0.2,0.2-0.4,0.4-0.9,0.4L21.2,22.2L21.2,22.2z
					 M17.8,15.4l-0.4-1.2L17,15.4H17.8z"/>
				<path class="st6" d="M18.6,7.4c0.1,0,0.2,0,0.3,0.1c0.1,0,0.1,0.1,0.2,0.1l0.2,0.5l5,12.8c0.1,0.1,0,0.2,0,0.3
					c-0.1,0.1-0.2,0.1-0.4,0.1h-2.7c-0.1,0-0.3,0-0.3-0.1c-0.1-0.1-0.1-0.1-0.2-0.3c-0.1-0.3-0.2-0.6-0.4-1c-0.1-0.3-0.2-0.6-0.4-1
					h-5c-0.1,0.3-0.2,0.6-0.4,1c-0.1,0.3-0.2,0.6-0.4,1c-0.1,0.2-0.2,0.4-0.5,0.4h-2.8c-0.1,0-0.2,0-0.3-0.1s-0.1-0.2,0-0.3
					l5.1-13.3c0,0,0-0.1,0.1-0.1l0.1-0.1c0.1,0,0.1-0.1,0.2-0.1s0.1,0,0.2,0L18.6,7.4 M16,16.1h2.9l-1.4-4.3c-0.1,0.3-0.2,0.7-0.4,1
					c-0.1,0.4-0.2,0.7-0.4,1.1c-0.1,0.4-0.2,0.8-0.4,1.1C16.2,15.4,16.1,15.8,16,16.1 M18.6,5.9h-2.4c-0.2,0-0.5,0-0.7,0.1
					S15.1,6.2,15,6.3c-0.2,0.1-0.3,0.2-0.4,0.4c-0.1,0.2-0.2,0.4-0.3,0.6L9.1,20.5c-0.3,0.7-0.1,1.5,0.5,2c0.3,0.3,0.8,0.4,1.2,0.4
					h2.8c0.9,0,1.6-0.5,1.9-1.4c0.1-0.3,0.2-0.6,0.3-0.9l0,0h3c0.1,0.3,0.2,0.6,0.4,1c0.2,0.5,0.5,0.8,0.7,1
					c0.3,0.2,0.7,0.3,1.2,0.3h2.7c0.8,0,1.2-0.3,1.5-0.6c0.4-0.5,0.6-1.2,0.3-1.9l-5-12.8l0,0l0,0L20.4,7l-0.1-0.2l-0.1-0.1
					c-0.1-0.1-0.2-0.3-0.4-0.4C19.5,6,19.1,5.9,18.6,5.9L18.6,5.9z"/>
			</g>
		</g>
	</g>
	<g>
		<g>
			<g>
				<path class="st1" d="M26.2,24.2c-0.2,0-0.4,0-0.5-0.1s-0.2-0.1-0.3-0.3c-0.1-0.1-0.2-0.2-0.2-0.4C25,23.3,25,23.1,25,22.9v-0.8
					c0-0.1,0-0.2,0-0.3c0-0.2,0.1-0.3,0.2-0.5c0.3-0.3,0.5-0.6,0.8-0.9l1.4-1.6h-1.1c-0.4,0-0.7-0.2-0.8-0.3
					c-0.2-0.2-0.4-0.4-0.4-0.9v-0.9c0-0.3,0.1-0.6,0.3-0.8c0.2-0.2,0.4-0.3,0.9-0.3H31c0.3,0,0.6,0.1,0.8,0.3
					c0.3,0.2,0.4,0.5,0.4,0.9v1c0,0.1,0,0.1,0,0.2c0,0.2-0.1,0.3-0.2,0.5l-2.1,2.4H31c0.4,0,0.7,0.2,0.8,0.3
					c0.2,0.2,0.4,0.4,0.4,0.9V23c0,0.1,0,0.3-0.1,0.4c0,0.1-0.1,0.3-0.2,0.4c-0.1,0.1-0.2,0.2-0.4,0.3c-0.2,0.1-0.3,0.1-0.5,0.1
					H26.2z"/>
				<path class="st6" d="M31,16.3c0.1,0,0.2,0,0.3,0.1c0.1,0.1,0.1,0.2,0.1,0.3v1v0.1c0,0,0,0.1-0.1,0.1l-3.1,3.6h2.7
					c0.1,0,0.2,0,0.3,0.1c0.1,0.1,0.1,0.2,0.1,0.3v0.9c0,0.1,0,0.1,0,0.2s-0.1,0.1-0.1,0.2l-0.1,0.1c0,0-0.1,0-0.2,0H26
					c-0.1,0-0.1,0-0.2,0s-0.1-0.1-0.1-0.1s-0.1-0.1-0.1-0.2s0-0.1,0-0.2V22c0-0.1,0-0.1,0-0.2s0-0.1,0.1-0.2
					c0.2-0.3,0.5-0.6,0.8-0.9s0.5-0.6,0.8-1c0.3-0.3,0.6-0.7,0.8-1c0.3-0.3,0.5-0.6,0.8-0.9h-2.7c-0.1,0-0.2,0-0.3-0.1
					c-0.1-0.1-0.1-0.2-0.1-0.4v-0.9c0-0.1,0-0.2,0.1-0.3C26,16,26.1,16,26.2,16H31 M31,14.8h-4.7c-0.5,0-1,0.2-1.4,0.6
					c-0.4,0.4-0.6,0.8-0.6,1.4v0.9c0,0.6,0.2,1.1,0.6,1.4c0.2,0.2,0.5,0.4,0.8,0.5c-0.1,0.1-0.2,0.3-0.4,0.4
					c-0.3,0.3-0.5,0.6-0.7,0.9s-0.4,0.6-0.4,0.9c0,0.1,0,0.3,0,0.4V23c0,0.3,0.1,0.5,0.2,0.8c0.1,0.2,0.2,0.4,0.4,0.6
					c0.2,0.2,0.3,0.3,0.5,0.4c0.3,0.1,0.6,0.2,0.9,0.2h4.9c0.3,0,0.6-0.1,0.9-0.2c0.2-0.1,0.4-0.3,0.6-0.5s0.3-0.4,0.4-0.6
					c0.1-0.2,0.1-0.4,0.1-0.7v-0.9c0-0.6-0.2-1.1-0.6-1.5c-0.3-0.2-0.6-0.4-0.9-0.5l1-1.2l0,0l0,0c0.2-0.3,0.3-0.5,0.3-0.8
					c0-0.1,0-0.2,0-0.3v-1c0-0.6-0.2-1.1-0.7-1.5C31.9,15,31.4,14.8,31,14.8L31,14.8z"/>
			</g>
		</g>
	</g>
</g>
</svg>
