<?xml version="1.0" encoding="utf-8"?>
<!-- Generator: Adobe Illustrator 24.0.0, SVG Export Plug-In . SVG Version: 6.00 Build 0)  -->
<svg version="1.1" id="Layer_1" xmlns="http://www.w3.org/2000/svg" xmlns:xlink="http://www.w3.org/1999/xlink" x="0px" y="0px"
	 viewBox="0 0 350 140" style="enable-background:new 0 0 350 140;" xml:space="preserve">
<style type="text/css">
	.st0{fill:#FEB38A;}
	.st1{fill:#5E33AD;}
	.st2{fill:#F21A50;}
</style>
<path class="st0" d="M214.4,323.1h-76V6c0-2.8-2.3-5.2-5.2-5.2H72c-2.8,0-5.2,2.3-5.2,5.2v317.1h-76c-1,1-1.6,2.3-1.6,3.7
	c0,1.4,0.6,2.7,1.6,3.7L99,510.5c1,1,2.3,1.5,3.6,1.5c1.3,0,2.6-0.5,3.6-1.5l108.2-180.1c1-1,1.6-2.3,1.6-3.7S215.4,324,214.4,323.1
	z"/>
<g>
	<path class="st1" d="M278.1,225.7l66.7-197.2c6.3-18.4,31-19.7,49.1-19.7c27.4,0,34,15.4,41,39.7L486,225.3c2,6.7-10,11.3-16,12
		c-14,1.3-14.4,1.3-28.4,1.3h-11c-12,0-17-2-22.4-17.4l-4-33.4c-1.3-1.7-8-1.7-47.4,0c-0.3,0-1,1-1.3,1.7c-2.7,7.7-3.7,24.4-6.7,33
		c-5.3,14-20.4,14.7-33.7,14.7c-2.7,0-12.7-0.7-18.4-0.7c-9,0-19-1-19-8C277.8,228,278.1,226,278.1,225.7z M366.2,142.6
		c10,0,20.7-1.3,32.7-0.7l-12.7-71.4L366.2,142.6z"/>
</g>
<g>
	<path class="st2" d="M297.3,478.8v-1.7c0-7.3,0-17,3.3-22.7l76.1-121.1l-62.4,0.7c-16.4,0.3-18.4-13.3-18.4-34
		c0-7.7,0.3-16.4,0.3-26c53.1,0.3,145.5,1.3,153.2,2c9.7,1,11.3,17,11.3,27c0,5-0.3,8.7-0.3,8.7l-74.4,133.5c28.4,0,38,1,66.1,1
		c8.7,1,10,11.7,10,21c0,9.7-2.7,23.4-2.7,31c-6.3,9.3-117.1,3-125.8,3c-10.7,0-19,0-29-1.7C298.3,494.8,297.3,486.5,297.3,478.8z"
		/>
</g>
</svg>
