<svg width="350" height="140" xmlns="http://www.w3.org/2000/svg" style="background:#f6f7f9">
        <!-- <svg *ngIf="item.type == 'directory'" width="30" height="30" viewBox="0 0 70 70"> -->
          <style type="text/css">
            .white {
              fill: #FFFFFF;
            }
          </style>
          <path class="lightBlue"
            d="M56.6,20.3c0-2.7-2.2-4.9-4.9-4.9H27.3c-0.8,0-1.6-0.3-2.2-1l-5.3-5.7c-0.6-0.6-1.4-1-2.2-1H4.9
              C2.2,7.8,0,10,0,12.7v43.4c0.1,0.1,0.1,0.1,0.2,0.1l27.1-20.4c0.5-0.4,1.2-0.6,1.8-0.6h24.4c1.7,0,3-1.3,3-3V20.3z" />
          <path class="blue" d="M50.4,58.9H1.7c-1.1,0-1.9-1.1-1.6-2.1l11.1-30.3c0.2-0.7,0.9-1.3,1.6-1.3h48.7c1.1,0,1.6,1.1,1.6,2.1
              L52.1,57.7C51.9,58.4,51.2,58.9,50.4,58.9z" />
          <g>
            <path class="white" d="M86,36.5l-2.3-2c-0.1-0.1-0.2-0.1-0.3-0.1c-0.1,0-0.2,0-0.2,0.1L74.9,44l-3-3.9c-0.1-0.1-0.1-0.1-0.2-0.1
                c-0.1,0-0.2,0-0.3,0.1L69,41.8c-0.2,0.1-0.2,0.3-0.1,0.5l5.5,7.3c0.1,0.1,0.2,0.1,0.3,0.1c0,0,0,0,0,0c0.1,0,0.2,0,0.3-0.1L86.1,37
                C86.2,36.8,86.2,36.6,86,36.5z" />
          </g>
          <polygon class="white" points="44.2,40.7 36.1,40.7 36.1,32.6 32.8,32.6 32.8,40.7 24.6,40.7 24.6,44.1 32.8,44.1 32.8,52.2 
              36.1,52.2 36.1,44.1 44.2,44.1 " />
        </svg>